<svg xmlns="http://www.w3.org/2000/svg" width="26.5" height="25" viewBox="0 0 26.5 25">
    <defs>
        <style>
            .cls-2{fill:none;stroke:#fff;stroke-linecap:round;stroke-linejoin:round;stroke-width:1.5px}
        </style>
    </defs>
    <g id="Group_11155" transform="translate(-473.25 -417.96)">
        <path id="Rectangle_1406" fill="none" d="M0 0H25V25H0z" transform="translate(474 417.96)"/>
        <g id="Group_11149" transform="translate(-226.865 1449.387)">
            <path id="Path_2713" d="M707.73-1019.161v-4.392h20.618v12.537h-15.354" class="cls-2" transform="translate(-2.483 -2.11)"/>
            <circle id="Ellipse_185" cx="3.243" cy="3.243" r="3.243" class="cls-2" transform="translate(712.315 -1022.638)"/>
            <path id="Path_2714" d="M702.052-1020.871v-8.517h20.616" class="cls-2" transform="translate(-.429)"/>
            <g id="Group_11148" transform="translate(700.865 -1021.31)">
                <g id="Group_11147">
                    <path id="Path_2715" d="M710.514-1015.243c0 .43-.592.827-1.547 1.1a12.277 12.277 0 0 1-3.279.4c-2.66 0-4.816-.67-4.816-1.5a.461.461 0 0 1 .079-.257c.389-.7 2.36-1.233 4.737-1.233a12.278 12.278 0 0 1 3.279.4 2.419 2.419 0 0 1 1.467.836.462.462 0 0 1 .08.254z" class="cls-2" transform="translate(-700.868 1016.733)"/>
                    <g id="Group_11146" transform="translate(0 1.492)">
                        <path id="Path_2716" d="M710.507-1014.4c0 .825-2.158 1.493-4.821 1.493s-4.821-.668-4.821-1.493" class="cls-2" transform="translate(-700.865 1014.395)"/>
                        <path id="Path_2717" d="M710.507-1009.249c0 .825-2.158 1.494-4.821 1.494s-4.821-.668-4.821-1.494" class="cls-2" transform="translate(-700.865 1012.534)"/>
                        <path id="Path_2718" d="M710.507-1004.1c0 .825-2.158 1.494-4.821 1.494s-4.821-.669-4.821-1.494" class="cls-2" transform="translate(-700.865 1010.672)"/>
                        <path id="Path_2719" d="M710.507-998.955c0 .825-2.158 1.494-4.821 1.494s-4.821-.669-4.821-1.494" class="cls-2" transform="translate(-700.865 1008.811)"/>
                    </g>
                </g>
                <path id="Line_401" d="M0 0L0 10.115" class="cls-2" transform="translate(.084 1.233)"/>
                <path id="Line_402" d="M0 0L0 9.859" class="cls-2" transform="translate(9.646 1.49)"/>
            </g>
            <path id="Line_403" d="M0 0L0 5.502" class="cls-2" transform="translate(722.238 -1025.663)"/>
            <path id="Line_404" d="M0 0L8.218 0" class="cls-2" transform="translate(717.647 -1016.916)"/>
        </g>
    </g>
</svg>
