<svg xmlns="http://www.w3.org/2000/svg" id="Group_317" width="145.665" height="24.62" viewBox="0 0 145.665 24.62">
    <defs>
        <style>
            .cls-1{fill:#fff}
        </style>
    </defs>
    <path id="Path_341" d="M.7 0H15a.7.7 0 0 1 .7.7v3.819a.7.7 0 0 1-.7.7H5.841v2.53h8.249a.7.7 0 0 1 .7.7V11.9a.7.7 0 0 1-.7.7H5.841v2.535h9.444a.7.7 0 0 1 .7.7v3.823a.7.7 0 0 1-.7.7H.7a.717.717 0 0 1-.7-.7V.7A.7.7 0 0 1 .7 0z" class="cls-1"/>
    <path id="Path_342" fill="#fff" d="M21.4 8.69a.754.754 0 0 1-.755-.746C20.665 2.865 23.564 0 28.057 0 32.3 0 35.17 2.052 35.17 6.324c0 5.138-4.332 6.731-7.647 9.071v.025h7.147a.747.747 0 0 1 .746.746v3.408a.747.747 0 0 1-.746.746H21.054a.753.753 0 0 1-.755-.763 7.961 7.961 0 0 1 1.263-4.2c1.475-2.34 3.934-3.866 6.189-5.434.9-.636 2.357-1.475 2.357-2.916 0-1.848-.924-2.459-2.1-2.459-1.806 0-2.552 1.356-2.628 3.408a.754.754 0 0 1-.746.721H21.4z" opacity="0.75" transform="translate(-3.09)"/>
    <path id="Path_343" d="M39.387.738A.738.738 0 0 1 40.125 0h8.41a6.761 6.761 0 0 1 7.181 6.952c0 4.9-3.179 7.232-7.681 7.232h-2.629V19.6a.738.738 0 0 1-.738.738h-4.56a.738.738 0 0 1-.738-.738V.738zm6.028 8.6h1.39c1.534 0 3.2-.085 3.2-2.162 0-1.848-1.373-1.967-2.849-1.967h-1.741z" class="cls-1" transform="translate(-5.993)"/>
    <path id="Path_344" d="M73.847 17.523a8.612 8.612 0 0 0 .246 2.416.684.684 0 0 1-.653.89h-3.925a.686.686 0 0 1-.687-.568 3.457 3.457 0 0 1-.051-.822h-.051a5.7 5.7 0 0 1-4.577 1.761c-2.738 0-5.019-1.365-5.019-4.468 0-4.7 5.29-4.468 8.037-5.044.738-.144 1.484-.373 1.484-1.314 0-1-.907-1.365-1.78-1.365-1.263 0-1.78.517-1.958 1.043a.7.7 0 0 1-.661.466h-3.689a.705.705 0 0 1-.7-.814C60.453 6.248 64 5.68 67.108 5.68c6.8 0 6.74 2.933 6.74 5.782v6.062zm-5.214-3.332a11.09 11.09 0 0 1-2.133.709c-1.2.314-1.84.6-1.84 1.594a1.577 1.577 0 0 0 1.7 1.365 2.167 2.167 0 0 0 2.272-2.306v-1.361z" class="cls-1" transform="translate(-9.001 -.865)"/>
    <path id="Path_345" d="M87.49 19.6a14.79 14.79 0 0 1-1.713 4.1c-1.4 1.823-3.45 1.823-5.5 1.823h-1.688a.684.684 0 0 1-.687-.687v-3.124a.684.684 0 0 1 .687-.687h1.365a1.84 1.84 0 0 0 .738-.144c.314-.195.5-.458.5-1.111 0-.687-2-6.155-2.289-7l-2.009-5.9a.684.684 0 0 1 .653-.907h4.095a.68.68 0 0 1 .661.517l2.052 7.969h.045l2.077-7.969a.688.688 0 0 1 .67-.517h3.917a.687.687 0 0 1 .653.9z" class="cls-1" transform="translate(-11.699 -.907)"/>
    <path id="Path_346" d="M92.931 17.77H97.2a.72.72 0 0 1 .721.721v4.2a.72.72 0 0 1-.721.721h-4.269a.72.72 0 0 1-.721-.721v-4.2a.72.72 0 0 1 .721-.721z" class="cls-1" transform="translate(-14.036 -2.705)"/>
    <path id="Path_347" d="M110.362 12.1a.725.725 0 0 1-.7-.543 1.683 1.683 0 0 0-.509-.848 1.979 1.979 0 0 0-1.373-.483c-2.086 0-2.382 1.882-2.382 3.671 0 1.823.305 3.645 2.382 3.645a2.13 2.13 0 0 0 2.009-1.636.715.715 0 0 1 .687-.526h3.73a.716.716 0 0 1 .7.89c-.831 3.459-3.7 5.375-7.24 5.375a7.475 7.475 0 0 1-7.706-7.749 7.5 7.5 0 0 1 7.706-7.774c3.484 0 6.426 1.619 7.121 5.129a.721.721 0 0 1-.7.856h-3.722z" class="cls-1" transform="translate(-15.216 -.932)"/>
    <path id="Path_348" d="M126.077 21.633c-5.349 0-7.757-3.671-7.757-7.774 0-4.069 2.416-7.749 7.757-7.749s7.757 3.671 7.757 7.749c.009 4.103-2.407 7.774-7.757 7.774zm0-11.42c-2.086 0-2.331 2.077-2.331 3.645s.246 3.671 2.331 3.671 2.331-2.111 2.331-3.671-.245-3.645-2.331-3.645z" class="cls-1" transform="translate(-18.011 -.93)"/>
    <path id="Path_349" d="M138.481 17.33h4.273a.72.72 0 0 1 .721.721v4.2a.72.72 0 0 1-.721.721h-4.273a.72.72 0 0 1-.721-.721v-4.2a.72.72 0 0 1 .721-.721z" class="cls-1" transform="translate(-20.97 -2.638)"/>
    <path id="Path_350" d="M150.935 3.959h-3.976a.729.729 0 0 1-.729-.729V.729a.729.729 0 0 1 .729-.729h3.976a.729.729 0 0 1 .729.729v2.5a.724.724 0 0 1-.729.73zm-3.968 1.594h3.976a.729.729 0 0 1 .729.729v13.327a.729.729 0 0 1-.729.729h-3.976a.729.729 0 0 1-.729-.729V6.282a.724.724 0 0 1 .73-.729z" class="cls-1" transform="translate(-22.259)"/>
    <path id="Path_351" d="M168.317 20.33h-3.781a.729.729 0 0 1-.729-.729v-.9h-.059c-.661.907-1.534 1.992-4.171 1.992-4.027 0-5.977-4.1-5.977-7.833 0-3.5 1.289-7.689 6.062-7.689a4.58 4.58 0 0 1 3.891 1.992h.059V.729a.729.729 0 0 1 .729-.729h3.976a.729.729 0 0 1 .729.729v18.88a.722.722 0 0 1-.729.721zm-6.892-11.047c-1.95 0-2.382 1.908-2.382 3.645s.441 3.671 2.382 3.671 2.382-1.933 2.382-3.671-.432-3.645-2.382-3.645z" class="cls-1" transform="translate(-23.381)"/>
</svg>
