<svg xmlns="http://www.w3.org/2000/svg" width="25" height="26.492" viewBox="0 0 25 26.492">
    <defs>
        <style>
            .cls-2{fill:none;stroke:#fff;stroke-linecap:round;stroke-linejoin:round;stroke-width:1.5px}
        </style>
    </defs>
    <g id="Group_11157" transform="translate(-473.497 -471.25)">
        <path id="Rectangle_1408" fill="none" d="M0 0H25V25H0z" transform="translate(473.497 471.996)"/>
        <g id="Icon_feather-file-text" transform="translate(470 469)">
            <path id="Path_2720" d="M18.5 3h-10A2.5 2.5 0 0 0 6 5.5v19.993a2.5 2.5 0 0 0 2.5 2.5h15a2.5 2.5 0 0 0 2.5-2.5v-15z" class="cls-2"/>
            <path id="Path_2721" d="M21 3v7.5h7.5" class="cls-2" transform="translate(-2.504)"/>
            <path id="Path_2722" d="M22 19.5H12" class="cls-2" transform="translate(-1.002 -2.754)"/>
            <path id="Path_2723" d="M22 25.5H12" class="cls-2" transform="translate(-1.002 -3.756)"/>
            <path id="Path_2724" d="M14.5 13.5H12" class="cls-2" transform="translate(-1.002 -1.753)"/>
        </g>
    </g>
</svg>
