<svg xmlns="http://www.w3.org/2000/svg" width="89.586" height="25.277" viewBox="0 0 89.586 25.277">
    <defs>
        <style>
            .cls-1,.cls-2{fill:#e72635;fill-rule:evenodd}.cls-2{fill:#790008}
        </style>
    </defs>
    <g id="_-Transfer---Other-Bank---Online----Unhappy-Copy" transform="translate(0 -1)">
        <g id="Group-27" transform="translate(0 1)">
            <path id="Fill-1" d="M699.787 12.275a2.727 2.727 0 0 0 .151-.893v-2.99a.541.541 0 0 0-.193-.4.606.606 0 0 0-.386-.132H686.4a.588.588 0 0 0-.4.144.49.49 0 0 0-.163.385v.033a.622.622 0 0 0 .242.491 9.681 9.681 0 0 1 2.189 2.277c.728 1.045.766 1.281.99 1.281h1.289v12.7a.569.569 0 0 0 .193.429.559.559 0 0 0 .371.151h3.533a.522.522 0 0 0 .408-.175.576.576 0 0 0 .156-.392v-12.71h4.156a.506.506 0 0 0 .428-.2" class="cls-1" transform="translate(-657.676 -7.581)"/>
            <path id="Fill-3" d="M949.483 17.135a3.958 3.958 0 1 1 3.958-3.958 3.958 3.958 0 0 1-3.958 3.958m8.884-6.391a9.547 9.547 0 0 0-.928-2.2 9.139 9.139 0 0 0-3.309-3.312 9.4 9.4 0 0 0-2.207-.928 9.221 9.221 0 0 0-4.9 0 9.548 9.548 0 0 0-1.611.616 1.611 1.611 0 0 0-.361.345 1.109 1.109 0 0 0-.224.675v2.372a1.125 1.125 0 0 1-1.127 1.125h-1.87a1.129 1.129 0 0 0-1.066.76c-.062.179-.119.362-.171.547a9.4 9.4 0 0 0 0 4.9 9.015 9.015 0 0 0 .928 2.193 9.343 9.343 0 0 0 3.3 3.294 9.243 9.243 0 0 0 9.306 0A9.444 9.444 0 0 0 956 19.694a9.093 9.093 0 0 0 1.44-1.855 9.324 9.324 0 0 0 .928-2.193 9.222 9.222 0 0 0 0-4.9" class="cls-1" transform="translate(-901.667 -3.846)"/>
            <g id="Group-7">
                <path id="Fill-5" d="M9.086 13.926a3.958 3.958 0 1 1 3.958-3.958 3.958 3.958 0 0 1-3.958 3.958m21.264-.8l-3.82-1.281a.682.682 0 0 0-.791.269A3.916 3.916 0 0 1 18.522 10a9.226 9.226 0 0 0-2.631-6.462l-.077-.082a9.261 9.261 0 1 0-8.89 15.506c.058.015.118.026.177.04a9.232 9.232 0 0 0 8.217-2s.47-.434.538-.5a9.259 9.259 0 0 0 14.895-2.415.692.692 0 0 0-.4-.965" class="cls-1" transform="translate(0 -.742)"/>
            </g>
            <path id="Fill-8" d="M404.054 6.349a3.907 3.907 0 0 1 3.011 1.415.7.7 0 0 0 .809.186l3.7-1.558a.713.713 0 0 0 .325-1.038A9.254 9.254 0 0 0 397.95 3.31a9.912 9.912 0 0 1 2.672 5.07 3.915 3.915 0 0 1 3.431-2.031" class="cls-1" transform="translate(-381.613 -1.01)"/>
            <path id="Fill-10" d="M1463.431 224.072h-.857a3.525 3.525 0 0 0-3.724 3.509 3.316 3.316 0 0 0 3.241 3.509h1.34v1.179h-1.34a4.508 4.508 0 0 1-4.554-4.688 4.782 4.782 0 0 1 4.9-4.688h.991z" class="cls-2" transform="translate(-1397.701 -213.784)"/>
            <path id="Fill-12" d="M1631.125 232.27h1.179v-9.376h-1.179z" class="cls-2" transform="translate(-1564.162 -213.785)"/>
            <path id="Fill-14" d="M1709.874 251.042h1.178v-6.429h-1.178zm.589-8.572a.71.71 0 1 1-.71.71.689.689 0 0 1 .71-.71z" class="cls-2" transform="translate(-1639.563 -232.557)"/>
            <path id="Fill-15" d="M1790.787 295.8h-.911a2.093 2.093 0 1 0 0 4.179h.911v1.121h-1.125a3.215 3.215 0 1 1 0-6.429h1.125z" class="cls-2" transform="translate(-1713.096 -282.615)"/>
            <path id="Fill-16" d="M1916.3 232.269v-9.376h1.178v5.331h.5a1.065 1.065 0 0 0 .991-.482l1.112-1.9h1.339l-.844 1.447c-.255.442-.643 1.085-1 1.179v.027a1.68 1.68 0 0 1 1.473 1.889v1.888h-1.179v-1.755c0-.8-.428-1.165-1.045-1.165h-1.339v2.92z" class="cls-2" transform="translate(-1837.627 -213.784)"/>
            <path id="Fill-17" d="M2053.334 299.975h3.295c.549 0 .763-.214.763-.616 0-1.179-4.058-.723-4.058-2.947 0-1.138.79-1.741 2.2-1.741h2.772v1.129h-2.973c-.576 0-.75.161-.763.563-.013 1.112 4.058.643 4.058 2.947a1.753 1.753 0 0 1-2 1.795h-3.295z" class="cls-2" transform="translate(-1969.039 -282.615)"/>
            <text id="BY" fill="#790008" font-family="Helvetica" font-size="1px" transform="translate(18.859 21.847)">
                <tspan x="0" y="0">BY</tspan>
            </text>
            <path id="Fill-18" d="M623.4 504.065h4.824v-4.823H623.4z" class="cls-2" transform="translate(-597.809 -478.788)"/>
            <path id="Fill-19" fill="#fff" fill-rule="evenodd" d="M641.855 521.413h-2.565l1.133 1.5h2.564z" transform="translate(-613.046 -500.048)"/>
            <path id="Fill-20" fill="#ed1c24" fill-rule="evenodd" d="M642.988 557.969h-2.564l-1.133 1.5h2.564z" transform="translate(-613.046 -535.104)"/>
            <path id="Fill-21" d="M774.411 521.052a1.023 1.023 0 1 1-.637-1.834 1.017 1.017 0 0 1 .637.222l.009.008.437-.437-.011-.008a1.636 1.636 0 0 0-1.073-.4 1.646 1.646 0 1 0 0 3.292 1.637 1.637 0 0 0 1.073-.4l.011-.009-.437-.437zm1.04.748h.629v-3.108h-.629zm3.107-1.122l-1.1-1.992h-.613v3.109h.627v-1.858l1.082 1.882 1.081-1.88v1.856h.627v-3.109h-.613l-1.094 1.992zm3.686.56h-.614v-.733h.614a.367.367 0 1 1 0 .733zm-.614-1.982h.575c.241 0 .385.128.385.342s-.144.341-.385.341h-.575zm1.224.951a.733.733 0 0 0 .364-.636.858.858 0 0 0-.965-.879H781v3.108h1.3a.862.862 0 0 0 .957-.9.735.735 0 0 0-.407-.693z" class="cls-2" transform="translate(-740.412 -497.351)"/>
            <path id="Fill-22" d="M1178.144 521.243h.45l1.082 3.081h-.374l-.295-.83h-1.3l-.282.85h-.422zm-.3 1.889h1.038l-.51-1.5h-.009z" class="cls-2" transform="translate(-1128.688 -499.886)"/>
            <path id="Fill-23" d="M1330.822 521.243h.452l1.079 3.081h-.375l-.293-.83h-1.3l-.282.85h-.42zm-.3 1.889h1.038l-.512-1.5h-.007z" class="cls-2" transform="translate(-1275.1 -499.886)"/>
            <path id="Fill-24" d="M1252.966 521.8a1.71 1.71 0 0 0-2.216.061 1.646 1.646 0 0 0-.445 1.269 1.521 1.521 0 0 0 1.613 1.431 2.933 2.933 0 0 0 1.109-.3v-1.471H1252v.281h.726v.968s-1.069.5-1.674-.1c0 0-.483-.262-.383-1.168a1.264 1.264 0 0 1 1.318-1.035s.6.074.766.335z" class="cls-2" transform="translate(-1198.976 -500.044)"/>
            <path id="Fill-25" d="M1156.6 523.811h.323v-3.1h-.323z" class="cls-2" transform="translate(-1109.12 -499.372)"/>
            <path id="Fill-26" d="M1077.779 520.708v2.539l-1.854-2.539h-.322v3.1h.322v-2.549l1.854 2.549h.323v-3.1z" class="cls-2" transform="translate(-1031.445 -499.373)"/>
        </g>
    </g>
</svg>
